<?xml version="1.0" standalone="no"?>
<!DOCTYPE svg PUBLIC "-//W3C//DTD SVG 20010904//EN"
 "http://www.w3.org/TR/2001/REC-SVG-20010904/DTD/svg10.dtd">
<svg version="1.0" xmlns="http://www.w3.org/2000/svg"
 width="300.000000pt" height="54.000000pt" viewBox="0 0 300.000000 54.000000"
 preserveAspectRatio="xMidYMid meet">
<metadata>
Created by potrace 1.10, written by Peter Selinger 2001-2011
</metadata>
<g transform="translate(0.000000,54.000000) scale(0.100000,-0.100000)"
fill="#000000" stroke="none">
<path d="M26 518 c17 -18 19 -40 19 -253 0 -182 -3 -236 -14 -248 -12 -16 -8
-17 45 -17 52 0 56 1 38 14 -18 13 -19 30 -21 262 -1 135 -4 248 -5 249 -2 1
-20 5 -42 8 -38 6 -38 6 -20 -15z"/>
<path d="M193 530 c113 -9 141 -23 156 -77 15 -53 13 -82 -8 -129 -18 -39 -67
-74 -103 -74 -33 0 -93 24 -114 45 -13 13 -24 20 -24 14 0 -21 49 -57 87 -63
37 -7 43 -13 85 -84 64 -108 80 -141 73 -152 -4 -6 16 -10 50 -10 l57 0 -30
25 c-24 20 -142 201 -142 218 0 2 13 7 29 10 100 20 146 164 75 238 -33 35
-97 50 -207 48 l-82 -2 98 -7z"/>
<path d="M533 518 c15 -16 17 -42 17 -252 0 -200 -2 -237 -16 -250 -14 -15 2
-16 180 -16 l196 0 -1 53 c-1 48 -2 49 -8 17 -12 -60 -11 -60 -151 -60 -155 0
-150 -4 -150 134 l0 96 99 0 c113 0 131 -9 131 -66 0 -19 4 -34 8 -34 5 0 9
47 9 105 0 58 -4 105 -9 105 -4 0 -8 -15 -8 -32 0 -58 -9 -63 -125 -66 l-105
-4 0 119 c0 158 -2 156 133 161 128 5 147 -3 147 -58 0 -22 5 -40 11 -40 6 0
9 21 7 53 l-3 52 -190 0 c-181 0 -189 -1 -172 -17z"/>
<path d="M1125 531 c-43 -11 -66 -25 -102 -63 -41 -44 -63 -113 -63 -202 0
-185 102 -283 272 -262 87 11 149 62 177 145 14 42 14 84 1 76 -5 -3 -10 -17
-10 -31 0 -111 -159 -188 -276 -135 -81 37 -109 104 -101 243 8 152 64 223
174 222 31 -1 63 -8 78 -18 32 -21 61 -79 70 -139 7 -44 9 -47 37 -47 29 0 30
0 23 43 -12 72 -47 122 -107 153 -36 19 -129 27 -173 15z"/>
<path d="M1478 529 c30 -11 34 -47 30 -292 -2 -180 -6 -219 -18 -227 -10 -7 3
-10 45 -10 46 1 56 3 43 11 -16 9 -18 32 -18 254 0 227 1 245 19 257 16 11 9
13 -51 14 -42 0 -62 -3 -50 -7z"/>
<path d="M1670 522 l25 -20 0 -237 c0 -223 -1 -237 -19 -251 -18 -13 -15 -14
36 -14 l57 0 -15 28 c-10 19 -14 64 -14 162 l0 135 20 -32 c36 -60 164 -70
242 -18 50 33 72 83 64 144 -12 90 -78 122 -239 120 l-82 -2 91 -7 c129 -11
158 -29 170 -108 9 -58 -18 -127 -56 -147 -38 -20 -113 -19 -151 1 -43 22 -59
68 -59 169 0 81 -1 85 -22 85 -13 0 -34 3 -48 7 l-25 6 25 -21z"/>
<path d="M2110 528 c28 -10 32 -49 28 -286 -3 -198 -4 -215 -22 -228 -17 -12
5 -14 182 -14 l202 0 -1 58 -1 57 -9 -43 c-4 -23 -11 -47 -14 -52 -4 -6 -61
-10 -134 -10 -104 0 -131 3 -141 15 -8 10 -15 56 -18 115 l-5 100 105 0 c118
0 126 -4 139 -68 4 -24 7 0 7 73 0 89 -2 102 -9 70 -14 -58 -28 -65 -142 -65
l-99 0 3 120 c5 154 4 153 139 158 120 5 147 -6 153 -65 3 -28 4 -23 5 20 l2
58 -194 -3 c-107 -2 -186 -6 -176 -10z"/>
<path d="M2689 524 c-30 -9 -59 -28 -83 -54 -31 -34 -36 -47 -36 -89 0 -88 44
-117 218 -146 102 -17 139 -35 149 -73 16 -65 -38 -111 -141 -119 -113 -10
-215 45 -232 125 -3 15 -9 36 -14 47 -8 19 -9 18 -9 -4 -2 -67 50 -155 112
-189 51 -27 208 -23 269 6 57 28 83 75 75 135 -11 79 -58 104 -256 136 -79 13
-111 39 -111 90 0 43 28 93 66 118 31 20 117 23 152 4 41 -22 73 -76 79 -135
6 -54 7 -56 34 -56 26 0 29 4 29 30 0 78 -57 153 -134 175 -61 18 -107 18
-167 -1z"/>
</g>
</svg>
